G75*
%MOIN*%
%OFA0B0*%
%FSLAX25Y25*%
%IPPOS*%
%LPD*%
%AMOC8*
5,1,8,0,0,1.08239X$1,22.5*
%
%ADD10C,0.09150*%
%ADD11OC8,0.06706*%
%ADD12C,0.08400*%
%ADD13OC8,0.08400*%
%ADD14C,0.07800*%
%ADD15OC8,0.18517*%
%ADD16OC8,0.07099*%
%ADD17OC8,0.07887*%
%ADD18C,0.07887*%
%ADD19C,0.07150*%
%ADD20C,0.07400*%
%ADD21C,0.08350*%
%ADD22C,0.13800*%
%ADD23C,0.07887*%
%ADD24OC8,0.06400*%
%ADD25OC8,0.06312*%
%ADD26OC8,0.18910*%
D10*
X0069624Y0301175D02*
X0069624Y0309524D01*
X0089424Y0309524D02*
X0089424Y0301175D01*
X0158207Y0301175D02*
X0158207Y0309524D01*
X0178007Y0309524D02*
X0178007Y0301175D01*
X0197577Y0301175D02*
X0197577Y0309524D01*
X0217377Y0309524D02*
X0217377Y0301175D01*
X0236947Y0301175D02*
X0236947Y0309524D01*
X0256747Y0309524D02*
X0256747Y0301175D01*
X0276317Y0301175D02*
X0276317Y0309524D01*
X0296117Y0309524D02*
X0296117Y0301175D01*
X0315687Y0301175D02*
X0315687Y0309524D01*
X0335487Y0309524D02*
X0335487Y0301175D01*
X0355057Y0301175D02*
X0355057Y0309524D01*
X0374857Y0309524D02*
X0374857Y0301175D01*
X0400153Y0256194D02*
X0408502Y0256194D01*
X0408502Y0236394D02*
X0400153Y0236394D01*
X0400153Y0197139D02*
X0408502Y0197139D01*
X0408502Y0177339D02*
X0400153Y0177339D01*
X0400153Y0157769D02*
X0408502Y0157769D01*
X0408502Y0137969D02*
X0400153Y0137969D01*
X0400153Y0118399D02*
X0408502Y0118399D01*
X0408502Y0098599D02*
X0400153Y0098599D01*
X0400153Y0079029D02*
X0408502Y0079029D01*
X0408502Y0059229D02*
X0400153Y0059229D01*
D11*
X0371926Y0067161D03*
X0366926Y0074661D03*
X0366926Y0083657D03*
X0361926Y0067161D03*
X0309091Y0025822D03*
X0279091Y0025822D03*
X0253973Y0025822D03*
X0223973Y0025822D03*
X0194918Y0025822D03*
X0164918Y0025822D03*
X0141611Y0066176D03*
X0136611Y0073676D03*
X0131611Y0066176D03*
X0160233Y0069877D03*
X0141611Y0093539D03*
X0136611Y0101039D03*
X0131611Y0093539D03*
X0160233Y0099877D03*
X0215351Y0099877D03*
X0215351Y0069877D03*
X0270469Y0069877D03*
X0270469Y0099877D03*
X0259012Y0145783D03*
X0244682Y0164169D03*
X0262595Y0172239D03*
X0280194Y0164444D03*
X0300194Y0164444D03*
X0317713Y0172239D03*
X0334879Y0164444D03*
X0354879Y0164444D03*
X0366926Y0154995D03*
X0372831Y0172239D03*
X0372831Y0202239D03*
X0317713Y0202239D03*
X0262595Y0202239D03*
X0224682Y0164169D03*
X0229012Y0145783D03*
X0175233Y0195113D03*
X0175233Y0214798D03*
X0145233Y0214798D03*
X0145233Y0195113D03*
X0100272Y0202987D03*
X0090272Y0202987D03*
X0157044Y0248263D03*
X0157044Y0267948D03*
X0132595Y0264641D03*
X0132595Y0274641D03*
X0135863Y0287633D03*
X0113816Y0269405D03*
X0105863Y0287633D03*
X0083816Y0269405D03*
X0187044Y0267948D03*
X0187044Y0248263D03*
X0366926Y0124995D03*
X0366926Y0113657D03*
D12*
X0120509Y0252121D03*
X0080509Y0252121D03*
D13*
X0041217Y0052554D03*
X0041217Y0042554D03*
X0342713Y0042554D03*
X0342713Y0052554D03*
D14*
X0215745Y0142243D02*
X0215745Y0149243D01*
X0205745Y0149243D02*
X0205745Y0142243D01*
X0195745Y0142243D02*
X0195745Y0149243D01*
X0185745Y0149243D02*
X0185745Y0142243D01*
X0175745Y0142243D02*
X0175745Y0149243D01*
X0165745Y0149243D02*
X0165745Y0142243D01*
X0155745Y0142243D02*
X0155745Y0149243D01*
X0145745Y0149243D02*
X0145745Y0142243D01*
X0135745Y0142243D02*
X0135745Y0149243D01*
X0125745Y0149243D02*
X0125745Y0142243D01*
X0115745Y0142243D02*
X0115745Y0149243D01*
X0105745Y0149243D02*
X0105745Y0142243D01*
X0095745Y0142243D02*
X0095745Y0149243D01*
X0085745Y0149243D02*
X0085745Y0142243D01*
X0075745Y0142243D02*
X0075745Y0149243D01*
X0065745Y0149243D02*
X0065745Y0142243D01*
D15*
X0044249Y0024011D03*
X0044249Y0145743D03*
X0339209Y0145743D03*
X0339209Y0024011D03*
D16*
X0133028Y0310704D03*
X0123028Y0310704D03*
D17*
X0192674Y0232987D03*
X0192674Y0222987D03*
X0192674Y0212987D03*
X0192674Y0202987D03*
X0127674Y0222987D03*
X0117674Y0222987D03*
D18*
X0122674Y0229444D02*
X0122674Y0236531D01*
X0132674Y0236531D02*
X0132674Y0229444D01*
X0142674Y0229444D02*
X0142674Y0236531D01*
X0152674Y0236531D02*
X0152674Y0229444D01*
X0162674Y0229444D02*
X0162674Y0236531D01*
X0172674Y0236531D02*
X0172674Y0229444D01*
X0182674Y0229444D02*
X0182674Y0236531D01*
X0182674Y0176531D02*
X0182674Y0169444D01*
X0192674Y0169444D02*
X0192674Y0176531D01*
X0172674Y0176531D02*
X0172674Y0169444D01*
X0162674Y0169444D02*
X0162674Y0176531D01*
X0152674Y0176531D02*
X0152674Y0169444D01*
X0142674Y0169444D02*
X0142674Y0176531D01*
X0132674Y0176531D02*
X0132674Y0169444D01*
X0122674Y0169444D02*
X0122674Y0176531D01*
X0112674Y0176531D02*
X0112674Y0169444D01*
X0102674Y0169444D02*
X0102674Y0176531D01*
X0092674Y0176531D02*
X0092674Y0169444D01*
X0082674Y0169444D02*
X0082674Y0176531D01*
X0082674Y0229444D02*
X0082674Y0236531D01*
X0092674Y0236531D02*
X0092674Y0229444D01*
X0102674Y0229444D02*
X0102674Y0236531D01*
X0112674Y0236531D02*
X0112674Y0229444D01*
D19*
X0177792Y0106227D02*
X0177792Y0099877D01*
X0187792Y0099877D02*
X0187792Y0106227D01*
X0197792Y0106227D02*
X0197792Y0099877D01*
X0232910Y0099877D02*
X0232910Y0106227D01*
X0242910Y0106227D02*
X0242910Y0099877D01*
X0252910Y0099877D02*
X0252910Y0106227D01*
X0288028Y0106227D02*
X0288028Y0099877D01*
X0298028Y0099877D02*
X0298028Y0106227D01*
X0308028Y0106227D02*
X0308028Y0099877D01*
X0308028Y0069877D02*
X0308028Y0063528D01*
X0298028Y0063528D02*
X0298028Y0069877D01*
X0288028Y0069877D02*
X0288028Y0063528D01*
X0252910Y0063528D02*
X0252910Y0069877D01*
X0242910Y0069877D02*
X0242910Y0063528D01*
X0232910Y0063528D02*
X0232910Y0069877D01*
X0197792Y0069877D02*
X0197792Y0063528D01*
X0187792Y0063528D02*
X0187792Y0069877D01*
X0177792Y0069877D02*
X0177792Y0063528D01*
D20*
X0079603Y0078302D03*
X0079603Y0088302D03*
X0079603Y0098302D03*
D21*
X0225036Y0178150D02*
X0225036Y0185699D01*
X0235036Y0185699D02*
X0235036Y0178150D01*
X0245036Y0178150D02*
X0245036Y0185699D01*
X0280154Y0185699D02*
X0280154Y0178150D01*
X0290154Y0178150D02*
X0290154Y0185699D01*
X0300154Y0185699D02*
X0300154Y0178150D01*
X0335272Y0178150D02*
X0335272Y0185699D01*
X0345272Y0185699D02*
X0345272Y0178150D01*
X0355272Y0178150D02*
X0355272Y0185699D01*
D22*
X0345272Y0250924D03*
X0290154Y0250924D03*
X0235036Y0250924D03*
D23*
X0039091Y0247043D03*
X0039091Y0257043D03*
X0039091Y0267043D03*
X0039091Y0277043D03*
D24*
X0065745Y0275822D03*
X0055902Y0256137D03*
X0061808Y0238420D03*
X0105115Y0216767D03*
X0085430Y0195113D03*
X0107083Y0191176D03*
X0075587Y0161649D03*
X0061808Y0189208D03*
X0112674Y0244641D03*
X0095272Y0128184D03*
X0075745Y0116531D03*
X0093658Y0098302D03*
X0061808Y0082909D03*
X0053934Y0088814D03*
X0209446Y0128184D03*
X0240942Y0053381D03*
D25*
X0262595Y0063224D03*
X0207477Y0106531D03*
X0181886Y0084877D03*
X0327556Y0102594D03*
X0384642Y0086846D03*
X0384642Y0124247D03*
X0384642Y0159680D03*
X0260627Y0238420D03*
X0201099Y0232987D03*
X0262595Y0317161D03*
D26*
X0410233Y0311255D03*
X0410233Y0023854D03*
X0044091Y0311255D03*
M02*
