G75*
%MOIN*%
%OFA0B0*%
%FSLAX25Y25*%
%IPPOS*%
%LPD*%
%AMOC8*
5,1,8,0,0,1.08239X$1,22.5*
%
%ADD10C,0.01000*%
%ADD11C,0.00000*%
D10*
X0030312Y0010074D02*
X0030312Y0325035D01*
X0424012Y0325035D01*
X0424012Y0010074D01*
X0030312Y0010074D01*
D11*
X0228536Y0250924D02*
X0228538Y0251085D01*
X0228544Y0251245D01*
X0228554Y0251406D01*
X0228568Y0251566D01*
X0228586Y0251726D01*
X0228607Y0251885D01*
X0228633Y0252044D01*
X0228663Y0252202D01*
X0228696Y0252359D01*
X0228734Y0252516D01*
X0228775Y0252671D01*
X0228820Y0252825D01*
X0228869Y0252978D01*
X0228922Y0253130D01*
X0228978Y0253281D01*
X0229039Y0253430D01*
X0229102Y0253578D01*
X0229170Y0253724D01*
X0229241Y0253868D01*
X0229315Y0254010D01*
X0229393Y0254151D01*
X0229475Y0254289D01*
X0229560Y0254426D01*
X0229648Y0254560D01*
X0229740Y0254692D01*
X0229835Y0254822D01*
X0229933Y0254950D01*
X0230034Y0255075D01*
X0230138Y0255197D01*
X0230245Y0255317D01*
X0230355Y0255434D01*
X0230468Y0255549D01*
X0230584Y0255660D01*
X0230703Y0255769D01*
X0230824Y0255874D01*
X0230948Y0255977D01*
X0231074Y0256077D01*
X0231202Y0256173D01*
X0231333Y0256266D01*
X0231467Y0256356D01*
X0231602Y0256443D01*
X0231740Y0256526D01*
X0231879Y0256606D01*
X0232021Y0256682D01*
X0232164Y0256755D01*
X0232309Y0256824D01*
X0232456Y0256890D01*
X0232604Y0256952D01*
X0232754Y0257010D01*
X0232905Y0257065D01*
X0233058Y0257116D01*
X0233212Y0257163D01*
X0233367Y0257206D01*
X0233523Y0257245D01*
X0233679Y0257281D01*
X0233837Y0257312D01*
X0233995Y0257340D01*
X0234154Y0257364D01*
X0234314Y0257384D01*
X0234474Y0257400D01*
X0234634Y0257412D01*
X0234795Y0257420D01*
X0234956Y0257424D01*
X0235116Y0257424D01*
X0235277Y0257420D01*
X0235438Y0257412D01*
X0235598Y0257400D01*
X0235758Y0257384D01*
X0235918Y0257364D01*
X0236077Y0257340D01*
X0236235Y0257312D01*
X0236393Y0257281D01*
X0236549Y0257245D01*
X0236705Y0257206D01*
X0236860Y0257163D01*
X0237014Y0257116D01*
X0237167Y0257065D01*
X0237318Y0257010D01*
X0237468Y0256952D01*
X0237616Y0256890D01*
X0237763Y0256824D01*
X0237908Y0256755D01*
X0238051Y0256682D01*
X0238193Y0256606D01*
X0238332Y0256526D01*
X0238470Y0256443D01*
X0238605Y0256356D01*
X0238739Y0256266D01*
X0238870Y0256173D01*
X0238998Y0256077D01*
X0239124Y0255977D01*
X0239248Y0255874D01*
X0239369Y0255769D01*
X0239488Y0255660D01*
X0239604Y0255549D01*
X0239717Y0255434D01*
X0239827Y0255317D01*
X0239934Y0255197D01*
X0240038Y0255075D01*
X0240139Y0254950D01*
X0240237Y0254822D01*
X0240332Y0254692D01*
X0240424Y0254560D01*
X0240512Y0254426D01*
X0240597Y0254289D01*
X0240679Y0254151D01*
X0240757Y0254010D01*
X0240831Y0253868D01*
X0240902Y0253724D01*
X0240970Y0253578D01*
X0241033Y0253430D01*
X0241094Y0253281D01*
X0241150Y0253130D01*
X0241203Y0252978D01*
X0241252Y0252825D01*
X0241297Y0252671D01*
X0241338Y0252516D01*
X0241376Y0252359D01*
X0241409Y0252202D01*
X0241439Y0252044D01*
X0241465Y0251885D01*
X0241486Y0251726D01*
X0241504Y0251566D01*
X0241518Y0251406D01*
X0241528Y0251245D01*
X0241534Y0251085D01*
X0241536Y0250924D01*
X0241534Y0250763D01*
X0241528Y0250603D01*
X0241518Y0250442D01*
X0241504Y0250282D01*
X0241486Y0250122D01*
X0241465Y0249963D01*
X0241439Y0249804D01*
X0241409Y0249646D01*
X0241376Y0249489D01*
X0241338Y0249332D01*
X0241297Y0249177D01*
X0241252Y0249023D01*
X0241203Y0248870D01*
X0241150Y0248718D01*
X0241094Y0248567D01*
X0241033Y0248418D01*
X0240970Y0248270D01*
X0240902Y0248124D01*
X0240831Y0247980D01*
X0240757Y0247838D01*
X0240679Y0247697D01*
X0240597Y0247559D01*
X0240512Y0247422D01*
X0240424Y0247288D01*
X0240332Y0247156D01*
X0240237Y0247026D01*
X0240139Y0246898D01*
X0240038Y0246773D01*
X0239934Y0246651D01*
X0239827Y0246531D01*
X0239717Y0246414D01*
X0239604Y0246299D01*
X0239488Y0246188D01*
X0239369Y0246079D01*
X0239248Y0245974D01*
X0239124Y0245871D01*
X0238998Y0245771D01*
X0238870Y0245675D01*
X0238739Y0245582D01*
X0238605Y0245492D01*
X0238470Y0245405D01*
X0238332Y0245322D01*
X0238193Y0245242D01*
X0238051Y0245166D01*
X0237908Y0245093D01*
X0237763Y0245024D01*
X0237616Y0244958D01*
X0237468Y0244896D01*
X0237318Y0244838D01*
X0237167Y0244783D01*
X0237014Y0244732D01*
X0236860Y0244685D01*
X0236705Y0244642D01*
X0236549Y0244603D01*
X0236393Y0244567D01*
X0236235Y0244536D01*
X0236077Y0244508D01*
X0235918Y0244484D01*
X0235758Y0244464D01*
X0235598Y0244448D01*
X0235438Y0244436D01*
X0235277Y0244428D01*
X0235116Y0244424D01*
X0234956Y0244424D01*
X0234795Y0244428D01*
X0234634Y0244436D01*
X0234474Y0244448D01*
X0234314Y0244464D01*
X0234154Y0244484D01*
X0233995Y0244508D01*
X0233837Y0244536D01*
X0233679Y0244567D01*
X0233523Y0244603D01*
X0233367Y0244642D01*
X0233212Y0244685D01*
X0233058Y0244732D01*
X0232905Y0244783D01*
X0232754Y0244838D01*
X0232604Y0244896D01*
X0232456Y0244958D01*
X0232309Y0245024D01*
X0232164Y0245093D01*
X0232021Y0245166D01*
X0231879Y0245242D01*
X0231740Y0245322D01*
X0231602Y0245405D01*
X0231467Y0245492D01*
X0231333Y0245582D01*
X0231202Y0245675D01*
X0231074Y0245771D01*
X0230948Y0245871D01*
X0230824Y0245974D01*
X0230703Y0246079D01*
X0230584Y0246188D01*
X0230468Y0246299D01*
X0230355Y0246414D01*
X0230245Y0246531D01*
X0230138Y0246651D01*
X0230034Y0246773D01*
X0229933Y0246898D01*
X0229835Y0247026D01*
X0229740Y0247156D01*
X0229648Y0247288D01*
X0229560Y0247422D01*
X0229475Y0247559D01*
X0229393Y0247697D01*
X0229315Y0247838D01*
X0229241Y0247980D01*
X0229170Y0248124D01*
X0229102Y0248270D01*
X0229039Y0248418D01*
X0228978Y0248567D01*
X0228922Y0248718D01*
X0228869Y0248870D01*
X0228820Y0249023D01*
X0228775Y0249177D01*
X0228734Y0249332D01*
X0228696Y0249489D01*
X0228663Y0249646D01*
X0228633Y0249804D01*
X0228607Y0249963D01*
X0228586Y0250122D01*
X0228568Y0250282D01*
X0228554Y0250442D01*
X0228544Y0250603D01*
X0228538Y0250763D01*
X0228536Y0250924D01*
X0283654Y0250924D02*
X0283656Y0251085D01*
X0283662Y0251245D01*
X0283672Y0251406D01*
X0283686Y0251566D01*
X0283704Y0251726D01*
X0283725Y0251885D01*
X0283751Y0252044D01*
X0283781Y0252202D01*
X0283814Y0252359D01*
X0283852Y0252516D01*
X0283893Y0252671D01*
X0283938Y0252825D01*
X0283987Y0252978D01*
X0284040Y0253130D01*
X0284096Y0253281D01*
X0284157Y0253430D01*
X0284220Y0253578D01*
X0284288Y0253724D01*
X0284359Y0253868D01*
X0284433Y0254010D01*
X0284511Y0254151D01*
X0284593Y0254289D01*
X0284678Y0254426D01*
X0284766Y0254560D01*
X0284858Y0254692D01*
X0284953Y0254822D01*
X0285051Y0254950D01*
X0285152Y0255075D01*
X0285256Y0255197D01*
X0285363Y0255317D01*
X0285473Y0255434D01*
X0285586Y0255549D01*
X0285702Y0255660D01*
X0285821Y0255769D01*
X0285942Y0255874D01*
X0286066Y0255977D01*
X0286192Y0256077D01*
X0286320Y0256173D01*
X0286451Y0256266D01*
X0286585Y0256356D01*
X0286720Y0256443D01*
X0286858Y0256526D01*
X0286997Y0256606D01*
X0287139Y0256682D01*
X0287282Y0256755D01*
X0287427Y0256824D01*
X0287574Y0256890D01*
X0287722Y0256952D01*
X0287872Y0257010D01*
X0288023Y0257065D01*
X0288176Y0257116D01*
X0288330Y0257163D01*
X0288485Y0257206D01*
X0288641Y0257245D01*
X0288797Y0257281D01*
X0288955Y0257312D01*
X0289113Y0257340D01*
X0289272Y0257364D01*
X0289432Y0257384D01*
X0289592Y0257400D01*
X0289752Y0257412D01*
X0289913Y0257420D01*
X0290074Y0257424D01*
X0290234Y0257424D01*
X0290395Y0257420D01*
X0290556Y0257412D01*
X0290716Y0257400D01*
X0290876Y0257384D01*
X0291036Y0257364D01*
X0291195Y0257340D01*
X0291353Y0257312D01*
X0291511Y0257281D01*
X0291667Y0257245D01*
X0291823Y0257206D01*
X0291978Y0257163D01*
X0292132Y0257116D01*
X0292285Y0257065D01*
X0292436Y0257010D01*
X0292586Y0256952D01*
X0292734Y0256890D01*
X0292881Y0256824D01*
X0293026Y0256755D01*
X0293169Y0256682D01*
X0293311Y0256606D01*
X0293450Y0256526D01*
X0293588Y0256443D01*
X0293723Y0256356D01*
X0293857Y0256266D01*
X0293988Y0256173D01*
X0294116Y0256077D01*
X0294242Y0255977D01*
X0294366Y0255874D01*
X0294487Y0255769D01*
X0294606Y0255660D01*
X0294722Y0255549D01*
X0294835Y0255434D01*
X0294945Y0255317D01*
X0295052Y0255197D01*
X0295156Y0255075D01*
X0295257Y0254950D01*
X0295355Y0254822D01*
X0295450Y0254692D01*
X0295542Y0254560D01*
X0295630Y0254426D01*
X0295715Y0254289D01*
X0295797Y0254151D01*
X0295875Y0254010D01*
X0295949Y0253868D01*
X0296020Y0253724D01*
X0296088Y0253578D01*
X0296151Y0253430D01*
X0296212Y0253281D01*
X0296268Y0253130D01*
X0296321Y0252978D01*
X0296370Y0252825D01*
X0296415Y0252671D01*
X0296456Y0252516D01*
X0296494Y0252359D01*
X0296527Y0252202D01*
X0296557Y0252044D01*
X0296583Y0251885D01*
X0296604Y0251726D01*
X0296622Y0251566D01*
X0296636Y0251406D01*
X0296646Y0251245D01*
X0296652Y0251085D01*
X0296654Y0250924D01*
X0296652Y0250763D01*
X0296646Y0250603D01*
X0296636Y0250442D01*
X0296622Y0250282D01*
X0296604Y0250122D01*
X0296583Y0249963D01*
X0296557Y0249804D01*
X0296527Y0249646D01*
X0296494Y0249489D01*
X0296456Y0249332D01*
X0296415Y0249177D01*
X0296370Y0249023D01*
X0296321Y0248870D01*
X0296268Y0248718D01*
X0296212Y0248567D01*
X0296151Y0248418D01*
X0296088Y0248270D01*
X0296020Y0248124D01*
X0295949Y0247980D01*
X0295875Y0247838D01*
X0295797Y0247697D01*
X0295715Y0247559D01*
X0295630Y0247422D01*
X0295542Y0247288D01*
X0295450Y0247156D01*
X0295355Y0247026D01*
X0295257Y0246898D01*
X0295156Y0246773D01*
X0295052Y0246651D01*
X0294945Y0246531D01*
X0294835Y0246414D01*
X0294722Y0246299D01*
X0294606Y0246188D01*
X0294487Y0246079D01*
X0294366Y0245974D01*
X0294242Y0245871D01*
X0294116Y0245771D01*
X0293988Y0245675D01*
X0293857Y0245582D01*
X0293723Y0245492D01*
X0293588Y0245405D01*
X0293450Y0245322D01*
X0293311Y0245242D01*
X0293169Y0245166D01*
X0293026Y0245093D01*
X0292881Y0245024D01*
X0292734Y0244958D01*
X0292586Y0244896D01*
X0292436Y0244838D01*
X0292285Y0244783D01*
X0292132Y0244732D01*
X0291978Y0244685D01*
X0291823Y0244642D01*
X0291667Y0244603D01*
X0291511Y0244567D01*
X0291353Y0244536D01*
X0291195Y0244508D01*
X0291036Y0244484D01*
X0290876Y0244464D01*
X0290716Y0244448D01*
X0290556Y0244436D01*
X0290395Y0244428D01*
X0290234Y0244424D01*
X0290074Y0244424D01*
X0289913Y0244428D01*
X0289752Y0244436D01*
X0289592Y0244448D01*
X0289432Y0244464D01*
X0289272Y0244484D01*
X0289113Y0244508D01*
X0288955Y0244536D01*
X0288797Y0244567D01*
X0288641Y0244603D01*
X0288485Y0244642D01*
X0288330Y0244685D01*
X0288176Y0244732D01*
X0288023Y0244783D01*
X0287872Y0244838D01*
X0287722Y0244896D01*
X0287574Y0244958D01*
X0287427Y0245024D01*
X0287282Y0245093D01*
X0287139Y0245166D01*
X0286997Y0245242D01*
X0286858Y0245322D01*
X0286720Y0245405D01*
X0286585Y0245492D01*
X0286451Y0245582D01*
X0286320Y0245675D01*
X0286192Y0245771D01*
X0286066Y0245871D01*
X0285942Y0245974D01*
X0285821Y0246079D01*
X0285702Y0246188D01*
X0285586Y0246299D01*
X0285473Y0246414D01*
X0285363Y0246531D01*
X0285256Y0246651D01*
X0285152Y0246773D01*
X0285051Y0246898D01*
X0284953Y0247026D01*
X0284858Y0247156D01*
X0284766Y0247288D01*
X0284678Y0247422D01*
X0284593Y0247559D01*
X0284511Y0247697D01*
X0284433Y0247838D01*
X0284359Y0247980D01*
X0284288Y0248124D01*
X0284220Y0248270D01*
X0284157Y0248418D01*
X0284096Y0248567D01*
X0284040Y0248718D01*
X0283987Y0248870D01*
X0283938Y0249023D01*
X0283893Y0249177D01*
X0283852Y0249332D01*
X0283814Y0249489D01*
X0283781Y0249646D01*
X0283751Y0249804D01*
X0283725Y0249963D01*
X0283704Y0250122D01*
X0283686Y0250282D01*
X0283672Y0250442D01*
X0283662Y0250603D01*
X0283656Y0250763D01*
X0283654Y0250924D01*
X0338772Y0250924D02*
X0338774Y0251085D01*
X0338780Y0251245D01*
X0338790Y0251406D01*
X0338804Y0251566D01*
X0338822Y0251726D01*
X0338843Y0251885D01*
X0338869Y0252044D01*
X0338899Y0252202D01*
X0338932Y0252359D01*
X0338970Y0252516D01*
X0339011Y0252671D01*
X0339056Y0252825D01*
X0339105Y0252978D01*
X0339158Y0253130D01*
X0339214Y0253281D01*
X0339275Y0253430D01*
X0339338Y0253578D01*
X0339406Y0253724D01*
X0339477Y0253868D01*
X0339551Y0254010D01*
X0339629Y0254151D01*
X0339711Y0254289D01*
X0339796Y0254426D01*
X0339884Y0254560D01*
X0339976Y0254692D01*
X0340071Y0254822D01*
X0340169Y0254950D01*
X0340270Y0255075D01*
X0340374Y0255197D01*
X0340481Y0255317D01*
X0340591Y0255434D01*
X0340704Y0255549D01*
X0340820Y0255660D01*
X0340939Y0255769D01*
X0341060Y0255874D01*
X0341184Y0255977D01*
X0341310Y0256077D01*
X0341438Y0256173D01*
X0341569Y0256266D01*
X0341703Y0256356D01*
X0341838Y0256443D01*
X0341976Y0256526D01*
X0342115Y0256606D01*
X0342257Y0256682D01*
X0342400Y0256755D01*
X0342545Y0256824D01*
X0342692Y0256890D01*
X0342840Y0256952D01*
X0342990Y0257010D01*
X0343141Y0257065D01*
X0343294Y0257116D01*
X0343448Y0257163D01*
X0343603Y0257206D01*
X0343759Y0257245D01*
X0343915Y0257281D01*
X0344073Y0257312D01*
X0344231Y0257340D01*
X0344390Y0257364D01*
X0344550Y0257384D01*
X0344710Y0257400D01*
X0344870Y0257412D01*
X0345031Y0257420D01*
X0345192Y0257424D01*
X0345352Y0257424D01*
X0345513Y0257420D01*
X0345674Y0257412D01*
X0345834Y0257400D01*
X0345994Y0257384D01*
X0346154Y0257364D01*
X0346313Y0257340D01*
X0346471Y0257312D01*
X0346629Y0257281D01*
X0346785Y0257245D01*
X0346941Y0257206D01*
X0347096Y0257163D01*
X0347250Y0257116D01*
X0347403Y0257065D01*
X0347554Y0257010D01*
X0347704Y0256952D01*
X0347852Y0256890D01*
X0347999Y0256824D01*
X0348144Y0256755D01*
X0348287Y0256682D01*
X0348429Y0256606D01*
X0348568Y0256526D01*
X0348706Y0256443D01*
X0348841Y0256356D01*
X0348975Y0256266D01*
X0349106Y0256173D01*
X0349234Y0256077D01*
X0349360Y0255977D01*
X0349484Y0255874D01*
X0349605Y0255769D01*
X0349724Y0255660D01*
X0349840Y0255549D01*
X0349953Y0255434D01*
X0350063Y0255317D01*
X0350170Y0255197D01*
X0350274Y0255075D01*
X0350375Y0254950D01*
X0350473Y0254822D01*
X0350568Y0254692D01*
X0350660Y0254560D01*
X0350748Y0254426D01*
X0350833Y0254289D01*
X0350915Y0254151D01*
X0350993Y0254010D01*
X0351067Y0253868D01*
X0351138Y0253724D01*
X0351206Y0253578D01*
X0351269Y0253430D01*
X0351330Y0253281D01*
X0351386Y0253130D01*
X0351439Y0252978D01*
X0351488Y0252825D01*
X0351533Y0252671D01*
X0351574Y0252516D01*
X0351612Y0252359D01*
X0351645Y0252202D01*
X0351675Y0252044D01*
X0351701Y0251885D01*
X0351722Y0251726D01*
X0351740Y0251566D01*
X0351754Y0251406D01*
X0351764Y0251245D01*
X0351770Y0251085D01*
X0351772Y0250924D01*
X0351770Y0250763D01*
X0351764Y0250603D01*
X0351754Y0250442D01*
X0351740Y0250282D01*
X0351722Y0250122D01*
X0351701Y0249963D01*
X0351675Y0249804D01*
X0351645Y0249646D01*
X0351612Y0249489D01*
X0351574Y0249332D01*
X0351533Y0249177D01*
X0351488Y0249023D01*
X0351439Y0248870D01*
X0351386Y0248718D01*
X0351330Y0248567D01*
X0351269Y0248418D01*
X0351206Y0248270D01*
X0351138Y0248124D01*
X0351067Y0247980D01*
X0350993Y0247838D01*
X0350915Y0247697D01*
X0350833Y0247559D01*
X0350748Y0247422D01*
X0350660Y0247288D01*
X0350568Y0247156D01*
X0350473Y0247026D01*
X0350375Y0246898D01*
X0350274Y0246773D01*
X0350170Y0246651D01*
X0350063Y0246531D01*
X0349953Y0246414D01*
X0349840Y0246299D01*
X0349724Y0246188D01*
X0349605Y0246079D01*
X0349484Y0245974D01*
X0349360Y0245871D01*
X0349234Y0245771D01*
X0349106Y0245675D01*
X0348975Y0245582D01*
X0348841Y0245492D01*
X0348706Y0245405D01*
X0348568Y0245322D01*
X0348429Y0245242D01*
X0348287Y0245166D01*
X0348144Y0245093D01*
X0347999Y0245024D01*
X0347852Y0244958D01*
X0347704Y0244896D01*
X0347554Y0244838D01*
X0347403Y0244783D01*
X0347250Y0244732D01*
X0347096Y0244685D01*
X0346941Y0244642D01*
X0346785Y0244603D01*
X0346629Y0244567D01*
X0346471Y0244536D01*
X0346313Y0244508D01*
X0346154Y0244484D01*
X0345994Y0244464D01*
X0345834Y0244448D01*
X0345674Y0244436D01*
X0345513Y0244428D01*
X0345352Y0244424D01*
X0345192Y0244424D01*
X0345031Y0244428D01*
X0344870Y0244436D01*
X0344710Y0244448D01*
X0344550Y0244464D01*
X0344390Y0244484D01*
X0344231Y0244508D01*
X0344073Y0244536D01*
X0343915Y0244567D01*
X0343759Y0244603D01*
X0343603Y0244642D01*
X0343448Y0244685D01*
X0343294Y0244732D01*
X0343141Y0244783D01*
X0342990Y0244838D01*
X0342840Y0244896D01*
X0342692Y0244958D01*
X0342545Y0245024D01*
X0342400Y0245093D01*
X0342257Y0245166D01*
X0342115Y0245242D01*
X0341976Y0245322D01*
X0341838Y0245405D01*
X0341703Y0245492D01*
X0341569Y0245582D01*
X0341438Y0245675D01*
X0341310Y0245771D01*
X0341184Y0245871D01*
X0341060Y0245974D01*
X0340939Y0246079D01*
X0340820Y0246188D01*
X0340704Y0246299D01*
X0340591Y0246414D01*
X0340481Y0246531D01*
X0340374Y0246651D01*
X0340270Y0246773D01*
X0340169Y0246898D01*
X0340071Y0247026D01*
X0339976Y0247156D01*
X0339884Y0247288D01*
X0339796Y0247422D01*
X0339711Y0247559D01*
X0339629Y0247697D01*
X0339551Y0247838D01*
X0339477Y0247980D01*
X0339406Y0248124D01*
X0339338Y0248270D01*
X0339275Y0248418D01*
X0339214Y0248567D01*
X0339158Y0248718D01*
X0339105Y0248870D01*
X0339056Y0249023D01*
X0339011Y0249177D01*
X0338970Y0249332D01*
X0338932Y0249489D01*
X0338899Y0249646D01*
X0338869Y0249804D01*
X0338843Y0249963D01*
X0338822Y0250122D01*
X0338804Y0250282D01*
X0338790Y0250442D01*
X0338780Y0250603D01*
X0338774Y0250763D01*
X0338772Y0250924D01*
M02*
