%
M48
M72
T01C0.0236
T02C0.0276
T03C0.0315
T04C0.0320
T05C0.0354
T06C0.0394
T07C0.0433
T08C0.0440
T09C0.0520
T10C0.1181
T11C0.1260
T12C0.1300
%
T01
X6181Y8291
X5393Y8881
X7574Y11653
X9527Y12818
X9366Y9830
X7559Y16165
X6181Y18921
X8543Y19511
X10708Y19118
X10511Y21677
X11267Y24464
X6574Y27582
X5590Y25614
X6181Y23842
X20110Y23299
X26063Y23842
X26260Y31716
X38464Y15968
X38464Y12425
X38464Y8685
X32756Y10259
X26260Y6322
X24094Y5338
X18189Y8488
X20748Y10653
X20945Y12818
T02
X22901Y14578
X22468Y16417
X24468Y16417
X26260Y17224
X28019Y16444
X30019Y16444
X31771Y17224
X33488Y16444
X35488Y16444
X36693Y15500
X37283Y17224
X37283Y20224
X31771Y20224
X26260Y20224
X25901Y14578
X27047Y9988
X27047Y6988
X27909Y2582
X25397Y2582
X22397Y2582
X19492Y2582
X16492Y2582
X14161Y6618
X13661Y7368
X13161Y6618
X16023Y6988
X14161Y9354
X13661Y10104
X13161Y9354
X16023Y9988
X21535Y9988
X21535Y6988
X30909Y2582
X36193Y6716
X36693Y7466
X36693Y8366
X37193Y6716
X36693Y11366
X36693Y12500
X18704Y24826
X18704Y26795
X15704Y26795
X15704Y24826
X13260Y26464
X13260Y27464
X13586Y28763
X11382Y26940
X10586Y28763
X8382Y26940
X14523Y21480
X14523Y19511
X17523Y19511
X17523Y21480
X10027Y20299
X9027Y20299
X7960Y9830
X7960Y8830
X7960Y7830
T03
X7574Y14574
X6574Y14574
X8574Y14574
X9574Y14574
X10574Y14574
X11574Y14574
X12574Y14574
X13574Y14574
X14574Y14574
X15574Y14574
X16574Y14574
X17574Y14574
X18574Y14574
X19574Y14574
X20574Y14574
X21574Y14574
X13303Y31070
X12303Y31070
T04
X17779Y9988
X18779Y9988
X19779Y9988
X23291Y9988
X24291Y9988
X25291Y9988
X28803Y9988
X29803Y9988
X30803Y9988
X30803Y6988
X29803Y6988
X28803Y6988
X25291Y6988
X24291Y6988
X23291Y6988
X19779Y6988
X18779Y6988
X17779Y6988
T05
X4122Y5255
X4122Y4255
X34271Y4255
X34271Y5255
T06
X19267Y17299
X18267Y17299
X17267Y17299
X16267Y17299
X15267Y17299
X14267Y17299
X13267Y17299
X12267Y17299
X11267Y17299
X10267Y17299
X9267Y17299
X8267Y17299
X11767Y22299
X12767Y22299
X12267Y23299
X13267Y23299
X14267Y23299
X15267Y23299
X16267Y23299
X17267Y23299
X18267Y23299
X19267Y23299
X19267Y22299
X19267Y21299
X19267Y20299
X11267Y23299
X10267Y23299
X9267Y23299
X8267Y23299
X3909Y24704
X3909Y25704
X3909Y26704
X3909Y27704
T07
X8051Y25212
X12051Y25212
T08
X22504Y18192
X23504Y18192
X24504Y18192
X28015Y18192
X29015Y18192
X30015Y18192
X33527Y18192
X34527Y18192
X35527Y18192
T09
X40433Y17734
X40433Y19714
X40433Y23639
X40433Y25619
X37486Y30535
X35506Y30535
X33549Y30535
X31569Y30535
X29612Y30535
X27632Y30535
X25675Y30535
X23695Y30535
X21738Y30535
X19758Y30535
X17801Y30535
X15821Y30535
X8942Y30535
X6962Y30535
X40433Y15777
X40433Y13797
X40433Y11840
X40433Y9860
X40433Y7903
X40433Y5923
T10
X4425Y2401
X4425Y14574
X33921Y14574
X33921Y2401
T11
X41023Y2385
X41023Y31126
X4409Y31126
T12
X23504Y25092
X29015Y25092
X34527Y25092
M30
