G75*
%MOIN*%
%OFA0B0*%
%FSLAX25Y25*%
%IPPOS*%
%LPD*%
%AMOC8*
5,1,8,0,0,1.08239X$1,22.5*
%
%ADD10C,0.09150*%
%ADD11OC8,0.06706*%
%ADD12C,0.08400*%
%ADD13OC8,0.08400*%
%ADD14C,0.07800*%
%ADD15OC8,0.18517*%
%ADD16OC8,0.07099*%
%ADD17OC8,0.07887*%
%ADD18C,0.07887*%
%ADD19C,0.07400*%
%ADD20C,0.07887*%
%ADD21C,0.07150*%
%ADD22OC8,0.06400*%
%ADD23OC8,0.06312*%
%ADD24OC8,0.18910*%
D10*
X0227284Y0188998D02*
X0227284Y0197347D01*
X0250784Y0189347D02*
X0250784Y0180998D01*
X0274284Y0188998D02*
X0274284Y0197347D01*
X0309961Y0197347D02*
X0309961Y0188998D01*
X0333461Y0189347D02*
X0333461Y0180998D01*
X0356961Y0188998D02*
X0356961Y0197347D01*
X0398184Y0197139D02*
X0406534Y0197139D01*
X0406534Y0177339D02*
X0398184Y0177339D01*
X0398184Y0157769D02*
X0406534Y0157769D01*
X0406534Y0137969D02*
X0398184Y0137969D01*
X0398184Y0118399D02*
X0406534Y0118399D01*
X0406534Y0098599D02*
X0398184Y0098599D01*
X0398184Y0079029D02*
X0406534Y0079029D01*
X0406534Y0059229D02*
X0398184Y0059229D01*
X0398184Y0236394D02*
X0406534Y0236394D01*
X0406534Y0256194D02*
X0398184Y0256194D01*
X0356961Y0245347D02*
X0356961Y0236998D01*
X0309961Y0236998D02*
X0309961Y0245347D01*
X0274284Y0245347D02*
X0274284Y0236998D01*
X0227284Y0236998D02*
X0227284Y0245347D01*
X0236947Y0297238D02*
X0236947Y0305587D01*
X0217377Y0305587D02*
X0217377Y0297238D01*
X0197577Y0297238D02*
X0197577Y0305587D01*
X0178007Y0305587D02*
X0178007Y0297238D01*
X0158207Y0297238D02*
X0158207Y0305587D01*
X0089424Y0309524D02*
X0089424Y0301175D01*
X0069624Y0301175D02*
X0069624Y0309524D01*
X0256747Y0305587D02*
X0256747Y0297238D01*
X0276317Y0297238D02*
X0276317Y0305587D01*
X0296117Y0305587D02*
X0296117Y0297238D01*
X0315687Y0297238D02*
X0315687Y0305587D01*
X0335487Y0305587D02*
X0335487Y0297238D01*
X0355057Y0297238D02*
X0355057Y0305587D01*
X0374857Y0305587D02*
X0374857Y0297238D01*
D11*
X0206729Y0252200D03*
X0176729Y0252200D03*
X0132595Y0264641D03*
X0132595Y0274641D03*
X0135863Y0287633D03*
X0113816Y0269405D03*
X0105863Y0287633D03*
X0083816Y0269405D03*
X0090272Y0202987D03*
X0100272Y0202987D03*
X0145233Y0201019D03*
X0175233Y0201019D03*
X0229012Y0145783D03*
X0259012Y0145783D03*
X0277280Y0090783D03*
X0282280Y0083283D03*
X0287280Y0090783D03*
X0297280Y0065192D03*
X0267280Y0065192D03*
X0219288Y0079877D03*
X0219288Y0089877D03*
X0179170Y0065192D03*
X0164170Y0083283D03*
X0169170Y0090783D03*
X0159170Y0090783D03*
X0149170Y0065192D03*
X0325587Y0079877D03*
X0325587Y0089877D03*
D12*
X0307871Y0104877D03*
X0307871Y0064877D03*
X0201572Y0064877D03*
X0201572Y0104877D03*
X0120509Y0252121D03*
X0080509Y0252121D03*
D13*
X0219288Y0277791D03*
X0262595Y0277791D03*
X0339367Y0277791D03*
X0380705Y0277791D03*
X0342713Y0052554D03*
X0342713Y0042554D03*
X0041217Y0042554D03*
X0041217Y0052554D03*
D14*
X0065745Y0142243D02*
X0065745Y0149243D01*
X0075745Y0149243D02*
X0075745Y0142243D01*
X0085745Y0142243D02*
X0085745Y0149243D01*
X0095745Y0149243D02*
X0095745Y0142243D01*
X0105745Y0142243D02*
X0105745Y0149243D01*
X0115745Y0149243D02*
X0115745Y0142243D01*
X0125745Y0142243D02*
X0125745Y0149243D01*
X0135745Y0149243D02*
X0135745Y0142243D01*
X0145745Y0142243D02*
X0145745Y0149243D01*
X0155745Y0149243D02*
X0155745Y0142243D01*
X0165745Y0142243D02*
X0165745Y0149243D01*
X0175745Y0149243D02*
X0175745Y0142243D01*
X0185745Y0142243D02*
X0185745Y0149243D01*
X0195745Y0149243D02*
X0195745Y0142243D01*
X0205745Y0142243D02*
X0205745Y0149243D01*
X0215745Y0149243D02*
X0215745Y0142243D01*
D15*
X0044249Y0024011D03*
X0044249Y0145743D03*
X0339209Y0145743D03*
X0339209Y0024011D03*
D16*
X0133028Y0310704D03*
X0123028Y0310704D03*
D17*
X0192674Y0232987D03*
X0192674Y0222987D03*
X0192674Y0212987D03*
X0192674Y0202987D03*
X0127674Y0222987D03*
X0117674Y0222987D03*
D18*
X0122674Y0229444D02*
X0122674Y0236531D01*
X0132674Y0236531D02*
X0132674Y0229444D01*
X0142674Y0229444D02*
X0142674Y0236531D01*
X0152674Y0236531D02*
X0152674Y0229444D01*
X0162674Y0229444D02*
X0162674Y0236531D01*
X0172674Y0236531D02*
X0172674Y0229444D01*
X0182674Y0229444D02*
X0182674Y0236531D01*
X0182674Y0176531D02*
X0182674Y0169444D01*
X0192674Y0169444D02*
X0192674Y0176531D01*
X0172674Y0176531D02*
X0172674Y0169444D01*
X0162674Y0169444D02*
X0162674Y0176531D01*
X0152674Y0176531D02*
X0152674Y0169444D01*
X0142674Y0169444D02*
X0142674Y0176531D01*
X0132674Y0176531D02*
X0132674Y0169444D01*
X0122674Y0169444D02*
X0122674Y0176531D01*
X0112674Y0176531D02*
X0112674Y0169444D01*
X0102674Y0169444D02*
X0102674Y0176531D01*
X0092674Y0176531D02*
X0092674Y0169444D01*
X0082674Y0169444D02*
X0082674Y0176531D01*
X0082674Y0229444D02*
X0082674Y0236531D01*
X0092674Y0236531D02*
X0092674Y0229444D01*
X0102674Y0229444D02*
X0102674Y0236531D01*
X0112674Y0236531D02*
X0112674Y0229444D01*
D19*
X0079603Y0098302D03*
X0079603Y0088302D03*
X0079603Y0078302D03*
D20*
X0039091Y0247043D03*
X0039091Y0257043D03*
X0039091Y0267043D03*
X0039091Y0277043D03*
D21*
X0119800Y0106227D02*
X0119800Y0099877D01*
X0129800Y0099877D02*
X0129800Y0106227D01*
X0129800Y0069877D02*
X0129800Y0063528D01*
X0119800Y0063528D02*
X0119800Y0069877D01*
X0237910Y0069877D02*
X0237910Y0063528D01*
X0247910Y0063528D02*
X0247910Y0069877D01*
X0247910Y0099877D02*
X0247910Y0106227D01*
X0237910Y0106227D02*
X0237910Y0099877D01*
D22*
X0105115Y0216767D03*
X0112674Y0244641D03*
X0065745Y0275822D03*
X0055902Y0256137D03*
X0061808Y0238420D03*
X0075587Y0161649D03*
X0075745Y0116531D03*
X0061808Y0082909D03*
D23*
X0101178Y0063224D03*
X0107083Y0094720D03*
X0148422Y0075035D03*
X0183855Y0116373D03*
X0144485Y0128184D03*
X0205509Y0179365D03*
X0292123Y0234483D03*
X0372831Y0232515D03*
X0380705Y0193145D03*
X0372831Y0185271D03*
X0380705Y0165586D03*
X0380705Y0110468D03*
X0357083Y0098657D03*
X0380705Y0086846D03*
X0227162Y0102594D03*
D24*
X0410233Y0023854D03*
X0410233Y0311255D03*
X0044091Y0311255D03*
M02*
