%
M48
M72
T01C0.02362
T02C0.02756
T03C0.03150
T04C0.03200
T05C0.03543
T06C0.03937
T07C0.04331
T08C0.05200
T09C0.11811
T10C0.12598
%
T01
X61808Y82909
X75745Y116531
X107083Y94720
X101178Y63224
X148422Y75035
X183855Y116373
X144485Y128184
X205509Y179365
X292123Y234483
X262595Y277791
X219288Y277791
X112674Y244641
X105115Y216767
X61808Y238420
X55902Y256137
X65745Y275822
X75587Y161649
X227162Y102594
X357083Y98657
X380705Y110468
X380705Y86846
X380705Y165586
X372831Y185271
X380705Y193145
X372831Y232515
X380705Y277791
X339367Y277791
T02
X206729Y252200
X176729Y252200
X132595Y264641
X132595Y274641
X135863Y287633
X113816Y269405
X105863Y287633
X83816Y269405
X90272Y202987
X100272Y202987
X145233Y201019
X175233Y201019
X229012Y145783
X259012Y145783
X277280Y90783
X282280Y83283
X287280Y90783
X297280Y65192
X267280Y65192
X219288Y79877
X219288Y89877
X179170Y65192
X164170Y83283
X169170Y90783
X159170Y90783
X149170Y65192
X79603Y78302
X79603Y88302
X79603Y98302
X325587Y89877
X325587Y79877
T03
X215745Y145743
X205745Y145743
X195745Y145743
X185745Y145743
X175745Y145743
X165745Y145743
X155745Y145743
X145745Y145743
X135745Y145743
X125745Y145743
X115745Y145743
X105745Y145743
X95745Y145743
X85745Y145743
X75745Y145743
X65745Y145743
X123028Y310704
X133028Y310704
T04
X129800Y99877
X119800Y99877
X119800Y69877
X129800Y69877
X237910Y69877
X247910Y69877
X247910Y99877
X237910Y99877
T05
X342713Y52554
X342713Y42554
X41217Y42554
X41217Y52554
T06
X82674Y172987
X92674Y172987
X102674Y172987
X112674Y172987
X122674Y172987
X132674Y172987
X142674Y172987
X152674Y172987
X162674Y172987
X172674Y172987
X182674Y172987
X192674Y172987
X192674Y202987
X192674Y212987
X192674Y222987
X192674Y232987
X182674Y232987
X172674Y232987
X162674Y232987
X152674Y232987
X142674Y232987
X132674Y232987
X122674Y232987
X127674Y222987
X117674Y222987
X112674Y232987
X102674Y232987
X92674Y232987
X82674Y232987
X39091Y247043
X39091Y257043
X39091Y267043
X39091Y277043
X201572Y104877
X201572Y64877
X307871Y64877
X307871Y104877
T07
X120509Y252121
X80509Y252121
T08
X89424Y305350
X69624Y305350
X158207Y301413
X178007Y301413
X197577Y301413
X217377Y301413
X236947Y301413
X256747Y301413
X276317Y301413
X296117Y301413
X315687Y301413
X335487Y301413
X355057Y301413
X374857Y301413
X402359Y256194
X402359Y236394
X356961Y241172
X309961Y241172
X274284Y241172
X227284Y241172
X227284Y193172
X250784Y185172
X274284Y193172
X309961Y193172
X333461Y185172
X356961Y193172
X402359Y197139
X402359Y177339
X402359Y157769
X402359Y137969
X402359Y118399
X402359Y98599
X402359Y79029
X402359Y59229
T09
X44249Y24011
X44249Y145743
X339209Y145743
X339209Y24011
T10
X410233Y23854
X410233Y311255
X44091Y311255
M30
